# xmcd CD database file
#
# Track frame offsets:
#	150
#	13510
#	33122
#	62818
#	79204
#	89030
#	98984
#	122751
#	145587
#	173464
#	197200
#	207722
#	225383
#	241817
#	259352
#	282773
#	301898
#	320996
#	329503
#
# Disc length: 4686 seconds
#
# Revision: 0
# Processed by: cddbd v1.5.2PL0 Copyright (c) Steve Scherf et al.
# Submitted via: CDex 1.70beta2
#
DISCID=10124c13
DTITLE=Chico Hamilton - 3 Classic Albums
DYEAR=1955
DGENRE=Jazz
TTITLE0=A Nice Day
TTITLE1=My Funny Valentine
TTITLE2=Blue Sands
TTITLE3=The Sage
TTITLE4=The Morning After
TTITLE5=I Want to Be Happy
TTITLE6=Spectacular
TTITLE7=Free Form
TTITLE8=Walking Carson Blues
TTITLE9=Buddy Boo
TTITLE10=Jonalah
TTITLE11=Chrissie
TTITLE12=The Wind
TTITLE13=Gone Lover
TTITLE14=The Ghost
TTITLE15=Sleepy Slept Here
TTITLE16=Taking a Chance on Love
TTITLE17=The Squimp
TTITLE18=Topsy
EXTD=YEAR: 1955
EXTT0=
EXTT1=
EXTT2=
EXTT3=
EXTT4=
EXTT5=
EXTT6=
EXTT7=
EXTT8=
EXTT9=
EXTT10=
EXTT11=
EXTT12=
EXTT13=
EXTT14=
EXTT15=
EXTT16=
EXTT17=
EXTT18=
PLAYORDER=
